<svg id="Calque_1" data-name="Calque 1" xmlns="http://www.w3.org/2000/svg" viewBox="0 0 1039.34 217.27"><title>Plan de travail 28 copie 2</title><path d="M401,38.9a17.89,17.89,0,1,0-33.41-12.79l-16.9,44.18A73.51,73.51,0,0,0,306.71,70l-16.8-43.9A17.89,17.89,0,0,0,256.5,38.9L275.67,89a73.43,73.43,0,1,0,105.83.73Z" style="fill:none;stroke:#fff;stroke-miterlimit:10;stroke-width:7.29262760937501px"/><path d="M146.85,140.16A73.43,73.43,0,1,1,20.63,89.1V21.53A18,18,0,0,1,38.49,3.66,18.37,18.37,0,0,1,51.14,8.88a18.36,18.36,0,0,1,5.21,12.65V68.71a76.09,76.09,0,0,1,17.07-2A73.44,73.44,0,0,1,146.85,140.16Z" style="fill:none;stroke:#fff;stroke-miterlimit:10;stroke-width:7.293px"/><path d="M699.21,34a17.94,17.94,0,0,0-24.65,5.66L650.72,77.73a72.84,72.84,0,0,0-23.67-9.47V21.53a17.89,17.89,0,0,0-35.77,0V69.72a73.1,73.1,0,0,0-22,10.74l-25.54-40.8a17.89,17.89,0,0,0-30.32,19l31.87,50.88a73.41,73.41,0,1,0,130.87-5.1l28.67-45.78A17.94,17.94,0,0,0,699.21,34Z" style="fill:#fff"/><path d="M1027.32,44.13h0a17.94,17.94,0,0,0-24.65,5.66L977.26,90.36A73.73,73.73,0,0,0,965.35,80L974.6,25a17.88,17.88,0,1,0-35.27-5.94l-8.09,48.08a72.79,72.79,0,0,0-15.42-.06L910,19.64A17.88,17.88,0,1,0,874.53,24l6.82,55.94a73.88,73.88,0,0,0-12.43,10.92l-25.7-41a17.94,17.94,0,0,0-24.65-5.66h0a17.93,17.93,0,0,0-5.67,24.64l37.81,60.39a75,75,0,0,0-.82,11,73.42,73.42,0,0,0,146.84,0,74.19,74.19,0,0,0-1-11.91L1033,68.77A17.93,17.93,0,0,0,1027.32,44.13Z" style="fill:none;stroke:#fff;stroke-miterlimit:10;stroke-width:7.29262760937501px"/></svg>