<svg id="Calque_1" data-name="Calque 1" xmlns="http://www.w3.org/2000/svg" viewBox="0 0 289.04 206.19"><title>Plan de travail 18</title><circle cx="73.32" cy="132.36" r="73.32" style="fill:#d26e81"/><rect x="101.58" y="24.56" width="35.56" height="109.69" rx="16.71" transform="translate(198.76 -39.95) rotate(90)" style="fill:#d26e81"/><rect x="87.42" y="-11.05" width="33.43" height="109.69" rx="16.38" transform="translate(61.47 -60.8) rotate(45)" style="fill:#d26e81"/><rect x="101.58" y="60.65" width="35.56" height="109.69" rx="16.71" transform="translate(234.86 -3.86) rotate(90)" style="fill:#d26e81"/><rect x="99.59" y="96.74" width="35.56" height="109.69" rx="16.71" transform="translate(268.96 34.22) rotate(90)" style="fill:#d26e81"/><rect x="91.03" y="131.11" width="35.56" height="109.69" rx="16.71" transform="translate(294.76 77.16) rotate(90)" style="fill:#d26e81"/><path d="M281.88,132.83a73.37,73.37,0,0,1-90.17,71.38H134.94a16.76,16.76,0,0,1-16.71-16.71v-2.13a16.76,16.76,0,0,1,10.55-15.53l63.94-.71c.65,0,.49.26.49-.48l-58.27.71c-2.17,0-4.25-.29-6.16.48h-2.41a16.76,16.76,0,0,1-16.71-16.71V151a16.76,16.76,0,0,1,16.71-16.71h68.41c0-.17,0-.35,0-.53H124.39A16.76,16.76,0,0,1,107.68,117V114.9a16.76,16.76,0,0,1,16.71-16.71h68.06v-.52l-1.71,0H124.39a16.76,16.76,0,0,1-16.71-16.72V78.81A16.76,16.76,0,0,1,124.39,62.1h17.43l-.34-.16a16.42,16.42,0,0,1-7.91-21.77l1.65-3.54A16.43,16.43,0,0,1,157,28.72l70.41,32.89a13.8,13.8,0,0,1,1.37.73A73.34,73.34,0,0,1,281.88,132.83Z" style="fill:#d26e81;stroke:#fff;stroke-miterlimit:10"/></svg>