<svg id="Calque_1" data-name="Calque 1" xmlns="http://www.w3.org/2000/svg" viewBox="0 0 287.09 205.39"><title>bataille-pouces</title><circle cx="73.32" cy="132.07" r="73.32" style="fill:#d26e81"/><rect x="101.58" y="24.27" width="35.56" height="109.69" rx="16.71" transform="translate(198.47 -40.24) rotate(90)" style="fill:#d26e81"/><rect x="78.79" width="33.43" height="109.69" rx="16.71" style="fill:#d26e81"/><rect x="101.58" y="60.36" width="35.56" height="109.69" rx="16.71" transform="translate(234.56 -4.15) rotate(90)" style="fill:#d26e81"/><rect x="99.59" y="96.45" width="35.56" height="109.69" rx="16.71" transform="translate(268.67 33.92) rotate(90)" style="fill:#d26e81"/><rect x="91.03" y="130.82" width="35.56" height="109.69" rx="16.71" transform="translate(294.47 76.86) rotate(90)" style="fill:#d26e81"/><path d="M286.22,132.07a73.37,73.37,0,0,1-90.17,71.38H139.28a16.76,16.76,0,0,1-16.71-16.71v-2.13a16.76,16.76,0,0,1,10.55-15.53l63.94-.71c.64,0,.49.25.49-.48l-58.27.7c-2.17,0-4.25-.28-6.16.49h-2.41A16.76,16.76,0,0,1,114,152.37v-2.14a16.76,16.76,0,0,1,16.71-16.71h68.41c0-.17,0-.35,0-.53H128.73A16.76,16.76,0,0,1,112,116.28v-2.14a16.76,16.76,0,0,1,16.71-16.71h68.06c0-.29,0-.27,0-.51l-1.7,0H128.73A16.76,16.76,0,0,1,112,80.18V78.05a16.76,16.76,0,0,1,16.71-16.71H174V16.72a16.72,16.72,0,1,1,33.43,0V59c1.8-.13,3.63-.2,5.47-.2A73.32,73.32,0,0,1,286.22,132.07Z" style="fill:#d26e81;stroke:#fff;stroke-miterlimit:10"/></svg>