<svg id="Calque_1" data-name="Calque 1" xmlns="http://www.w3.org/2000/svg" viewBox="0 0 666 327.81"><title>Plan de travail 31</title><path d="M222.43,219.35a5.57,5.57,0,1,0,4-10.4l-13.76-5.27a22.81,22.81,0,0,0,.08-13.68l13.68-5.23a5.57,5.57,0,1,0-4-10.4l-15.6,6a22.86,22.86,0,1,0-.22,33Z" style="fill:#fff"/><path d="M440.27,169.91a5.54,5.54,0,0,0,1.76,7.63l11.79,7.39a22.61,22.61,0,0,0-2.94,7.33H436.41a5.54,5.54,0,0,0,0,11.08h14.93a22.52,22.52,0,0,0,3.32,6.8L442,218.06a5.54,5.54,0,1,0,5.88,9.39l15.76-9.88A22.74,22.74,0,1,0,462.09,177l-14.18-8.88A5.57,5.57,0,0,0,440.27,169.91Z" style="fill:#fff"/><g id="Groupe_1" data-name="Groupe 1"><rect id="Rectangle_2" data-name="Rectangle 2" x="48.35" y="100.29" width="34.59" height="106.72" rx="10.6" style="fill:#fff"/><rect id="Rectangle_3" data-name="Rectangle 3" x="35.91" y="221.09" width="23.55" height="106.72" rx="7.21" style="fill:#fff"/><rect id="Rectangle_4" data-name="Rectangle 4" y="144.37" width="23.55" height="106.72" rx="7.21" style="fill:#fff"/><rect id="Rectangle_5" data-name="Rectangle 5" x="107.74" y="144.37" width="23.55" height="106.72" rx="7.21" style="fill:#fff"/><rect id="Rectangle_6" data-name="Rectangle 6" x="71.82" y="221.09" width="23.55" height="106.72" rx="7.21" style="fill:#fff"/><rect id="Rectangle_7" data-name="Rectangle 7" x="32.65" y="144.37" width="65.99" height="106.72" rx="10.6" style="fill:#fff"/></g><g id="Groupe_2" data-name="Groupe 2"><rect id="Rectangle_8" data-name="Rectangle 8" x="583.06" y="85.43" width="34.59" height="106.72" rx="10.6" style="fill:#fff"/><rect id="Rectangle_9" data-name="Rectangle 9" x="570.63" y="206.22" width="23.55" height="106.72" rx="7.21" style="fill:#fff"/><rect id="Rectangle_10" data-name="Rectangle 10" x="534.72" y="129.5" width="23.55" height="106.72" rx="7.21" style="fill:#fff"/><rect id="Rectangle_11" data-name="Rectangle 11" x="642.45" y="129.5" width="23.55" height="106.72" rx="7.21" style="fill:#fff"/><rect id="Rectangle_12" data-name="Rectangle 12" x="606.54" y="206.22" width="23.55" height="106.72" rx="7.21" style="fill:#fff"/><rect id="Rectangle_13" data-name="Rectangle 13" x="567.36" y="129.5" width="65.99" height="106.72" rx="10.6" style="fill:#fff"/></g><g id="_WIN_" data-name=" WIN " style="isolation:isolate"><text transform="matrix(0.89, 0.45, -0.45, 0.89, 126.65, 28.65)" style="isolation:isolate;font-size:20px;fill:#fff;font-family:Nunito-BoldItalic, Nunito;font-weight:700;font-style:italic">« WIN »</text></g><g id="_LOOSE_" data-name=" LOOSE " style="isolation:isolate"><text transform="translate(433.04 63.03) rotate(-30)" style="isolation:isolate;font-size:20px;fill:#fff;font-family:Nunito-BoldItalic, Nunito;font-weight:700;font-style:italic">« <tspan x="15.3" y="0" style="letter-spacing:-0.03798828125em">L</tspan><tspan x="25.64" y="0">OOSE »</tspan></text></g></svg>