<svg id="Calque_1" data-name="Calque 1" xmlns="http://www.w3.org/2000/svg" viewBox="0 0 242.46 219.79"><title>main5-contours</title><path d="M228.86,45.28h0A17.94,17.94,0,0,0,204.21,51L178.8,91.52a73.72,73.72,0,0,0-11.9-10.4l9.24-54.95a17.88,17.88,0,0,0-35.27-5.93l-8.09,48.07a73.66,73.66,0,0,0-15.42,0l-5.79-47.47A17.93,17.93,0,0,0,91.66,5.21h0A17.93,17.93,0,0,0,76.07,25.12l6.82,55.95A73.88,73.88,0,0,0,70.46,92L44.76,51a17.94,17.94,0,0,0-24.65-5.67h0a17.94,17.94,0,0,0-5.67,24.65l37.82,60.38a72.81,72.81,0,0,0-.82,10.92l-21.83-8.54A17.93,17.93,0,0,0,6.45,142.84h0A17.93,17.93,0,0,0,16.59,166l49.55,19.37a73.41,73.41,0,0,0,131.15-56l37.23-59.45A17.94,17.94,0,0,0,228.86,45.28Z" style="fill:none;stroke:#fff;stroke-miterlimit:10;stroke-width:7.29262760937501px"/></svg>