<svg id="Calque_1" data-name="Calque 1" xmlns="http://www.w3.org/2000/svg" viewBox="0 0 228.47 212.4"><title>main4-pleine</title><path d="M218.61,41.59h0A17.94,17.94,0,0,0,194,47.25l-25.4,40.57a74.16,74.16,0,0,0-11.91-10.39l9.25-54.95a17.88,17.88,0,1,0-35.27-5.94l-8.09,48.08a72.88,72.88,0,0,0-15.43-.06L101.33,17.1a17.89,17.89,0,1,0-35.51,4.33l6.83,55.94A73.56,73.56,0,0,0,60.21,88.29l-25.7-41A17.94,17.94,0,0,0,9.86,41.59h0A17.93,17.93,0,0,0,4.2,66.23L42,126.62a73.42,73.42,0,1,0,145-.93l37.23-59.46A17.93,17.93,0,0,0,218.61,41.59Z" style="fill:#fff"/></svg>