<svg id="Calque_1" data-name="Calque 1" xmlns="http://www.w3.org/2000/svg" viewBox="0 0 323.49 279.48"><title>mains-bouclier</title><rect x="133.38" y="11.03" width="57.11" height="302.37" rx="23.67" transform="translate(391.14 162.41) rotate(135)" style="fill:#d26e81"/><rect x="133.38" y="11.03" width="57.11" height="302.37" rx="23.67" transform="translate(161.74 391.42) rotate(-135)" style="fill:#d26e81"/><circle cx="267.47" cy="54.56" r="41.65" style="fill:#d26e81"/><rect x="253.7" y="-4.47" width="18.59" height="55.76" rx="6.93" transform="translate(93.58 -179.11) rotate(45)" style="fill:#d26e81"/><rect x="267.9" y="6.78" width="18.59" height="55.76" rx="6.93" transform="translate(105.7 -185.86) rotate(45)" style="fill:#d26e81"/><rect x="280.52" y="19.89" width="18.59" height="55.76" rx="6.93" transform="translate(118.66 -190.94) rotate(45)" style="fill:#d26e81"/><rect x="290.78" y="35.07" width="18.59" height="55.76" rx="6.93" transform="translate(132.4 -193.75) rotate(45)" style="fill:#d26e81"/><circle cx="56.02" cy="54.56" r="41.65" style="fill:#d26e81"/><rect x="51.2" y="-4.47" width="18.59" height="55.76" rx="6.93" transform="translate(119.82 -2.81) rotate(135)" style="fill:#d26e81"/><rect x="37" y="6.78" width="18.59" height="55.76" rx="6.93" transform="translate(103.53 26.43) rotate(135)" style="fill:#d26e81"/><rect x="24.38" y="19.89" width="18.59" height="55.76" rx="6.93" transform="translate(91.26 57.73) rotate(135)" style="fill:#d26e81"/><rect x="14.11" y="35.07" width="18.59" height="55.76" rx="6.93" transform="translate(84.47 90.91) rotate(135)" style="fill:#d26e81"/></svg>