<svg id="Calque_1" data-name="Calque 1" xmlns="http://www.w3.org/2000/svg" viewBox="0 0 235.07 212.4"><title>main5-pleine</title><path d="M225.16,41.59h0a17.93,17.93,0,0,0-24.64,5.66L175.11,87.82A73.73,73.73,0,0,0,163.2,77.43l9.25-54.95a17.88,17.88,0,1,0-35.27-5.94l-8.09,48.08a72.79,72.79,0,0,0-15.42-.06L107.88,17.1A17.94,17.94,0,0,0,88,1.51h0A18,18,0,0,0,72.37,21.43L79.2,77.37A74,74,0,0,0,66.76,88.29l-25.7-41a17.94,17.94,0,0,0-24.65-5.66h0a17.93,17.93,0,0,0-5.66,24.64l37.81,60.39a75.41,75.41,0,0,0-.82,10.91L25.92,129A17.94,17.94,0,0,0,2.75,139.14h0A17.93,17.93,0,0,0,12.9,162.31l49.55,19.37A73.42,73.42,0,0,0,194.58,137.6a74.19,74.19,0,0,0-1-11.91l37.23-59.46A17.93,17.93,0,0,0,225.16,41.59Z" style="fill:#fff"/></svg>