<svg id="Calque_1" data-name="Calque 1" xmlns="http://www.w3.org/2000/svg" viewBox="0 0 235.86 219.79"><title>main4-contours</title><path d="M222.31,45.28h0A17.94,17.94,0,0,0,197.66,51L172.25,91.52a73.79,73.79,0,0,0-11.91-10.4l9.25-54.95a17.88,17.88,0,0,0-35.27-5.93l-8.09,48.07a73.66,73.66,0,0,0-15.42,0L105,20.79a17.88,17.88,0,0,0-35.5,4.33l6.82,55.95A73.88,73.88,0,0,0,63.91,92L38.21,51a17.94,17.94,0,0,0-24.65-5.67h0A17.94,17.94,0,0,0,7.89,69.93L45.7,130.31a75.08,75.08,0,0,0-.82,11,73.42,73.42,0,1,0,146.84,0,74.28,74.28,0,0,0-1-11.91L228,69.93A17.94,17.94,0,0,0,222.31,45.28Z" style="fill:none;stroke:#fff;stroke-miterlimit:10;stroke-width:7.29262760937501px"/></svg>