<svg id="Calque_1" data-name="Calque 1" xmlns="http://www.w3.org/2000/svg" viewBox="0 0 212.77 736.18"><title>Plan de travail 38</title><g id="Groupe_24" data-name="Groupe 24"><ellipse id="Ellipse_36" data-name="Ellipse 36" cx="102.49" cy="54.08" rx="49.89" ry="54.08" style="fill:#c06b85"/><g id="Groupe_22" data-name="Groupe 22"><ellipse id="Ellipse_37" data-name="Ellipse 37" cx="46.51" cy="108.11" rx="31.82" ry="20.12" transform="translate(-66 142.67) rotate(-83.8)" style="fill:#c06b85"/><path id="Rectangle_45" data-name="Rectangle 45" d="M35.14,103h0a6.29,6.29,0,0,1-4.73-7.52l11.15-49a6.29,6.29,0,0,1,7.52-4.73h0a6.29,6.29,0,0,1,4.73,7.52l-11.15,49A6.28,6.28,0,0,1,35.14,103Z" style="fill:#c06b85"/></g><g id="Groupe_23" data-name="Groupe 23"><ellipse id="Ellipse_38" data-name="Ellipse 38" cx="159.19" cy="108.11" rx="20.12" ry="31.82" transform="translate(-10.75 17.83) rotate(-6.2)" style="fill:#c06b85"/><path id="Rectangle_46" data-name="Rectangle 46" d="M156.64,41.71h0a6.29,6.29,0,0,1,7.52,4.73l11.15,49a6.27,6.27,0,0,1-4.74,7.52h0a6.28,6.28,0,0,1-7.52-4.73l-11.15-49A6.28,6.28,0,0,1,156.64,41.71Z" style="fill:#c06b85"/></g></g><g id="Groupe_25" data-name="Groupe 25"><circle id="Ellipse_39" data-name="Ellipse 39" cx="78.43" cy="360.42" r="52.15" style="fill:#c06b85"/><path id="Rectangle_47" data-name="Rectangle 47" d="M185.64,324.67h0a11.9,11.9,0,0,1-11.9,11.9H103.39a11.9,11.9,0,0,1-11.91-11.9h0a11.9,11.9,0,0,1,11.91-11.9h70.35A11.9,11.9,0,0,1,185.64,324.67Z" style="fill:#c06b85"/><path id="Rectangle_48" data-name="Rectangle 48" d="M183.62,348.51h0a11.9,11.9,0,0,1-11.9,11.9H117.41a11.9,11.9,0,0,1-11.91-11.9h0a11.9,11.9,0,0,1,11.91-11.9h54.31A11.9,11.9,0,0,1,183.62,348.51Z" style="fill:#c06b85"/><path id="Rectangle_49" data-name="Rectangle 49" d="M85.88,267.35h0a11.9,11.9,0,0,1,11.9,11.9v54.31a11.9,11.9,0,0,1-11.9,11.91h0A11.91,11.91,0,0,1,74,333.56V279.25A11.9,11.9,0,0,1,85.88,267.35Z" style="fill:#c06b85"/></g><g id="Groupe_28" data-name="Groupe 28"><path id="Rectangle_50" data-name="Rectangle 50" d="M177.25,730.64h0a18.89,18.89,0,0,1-26.72,0L35.77,615.88a18.89,18.89,0,0,1,0-26.72h0a18.89,18.89,0,0,1,26.72,0L177.25,703.92A18.89,18.89,0,0,1,177.25,730.64Z" style="fill:#c06b85"/><path id="Rectangle_51" data-name="Rectangle 51" d="M35.77,730.64h0a18.89,18.89,0,0,1,0-26.72L150.53,589.16a18.89,18.89,0,0,1,26.72,0h0a18.89,18.89,0,0,1,0,26.72L62.49,730.64A18.89,18.89,0,0,1,35.77,730.64Z" style="fill:#c06b85"/><g id="Groupe_26" data-name="Groupe 26"><circle id="Ellipse_40" data-name="Ellipse 40" cx="176.34" cy="588.66" r="27.56" style="fill:#c06b85"/><rect id="Rectangle_52" data-name="Rectangle 52" x="154.93" y="561.9" width="36.9" height="12.3" rx="6.15" transform="translate(-350.89 288.98) rotate(-45)" style="fill:#c06b85"/><rect id="Rectangle_53" data-name="Rectangle 53" x="164.33" y="569.35" width="36.9" height="12.3" rx="6.15" transform="translate(-353.4 297.8) rotate(-45)" style="fill:#c06b85"/><rect id="Rectangle_54" data-name="Rectangle 54" x="172.68" y="578.02" width="36.9" height="12.3" rx="6.15" transform="translate(-357.09 306.25) rotate(-45)" style="fill:#c06b85"/><rect id="Rectangle_55" data-name="Rectangle 55" x="179.47" y="588.07" width="36.9" height="12.3" rx="6.15" transform="translate(-362.21 313.99) rotate(-45)" style="fill:#c06b85"/></g><g id="Groupe_27" data-name="Groupe 27"><circle id="Ellipse_41" data-name="Ellipse 41" cx="36.42" cy="588.66" r="27.56" style="fill:#c06b85"/><rect id="Rectangle_56" data-name="Rectangle 56" x="33.23" y="549.6" width="12.3" height="36.9" rx="6.15" transform="translate(-390.14 194.23) rotate(-45)" style="fill:#c06b85"/><rect id="Rectangle_57" data-name="Rectangle 57" x="23.84" y="557.05" width="12.3" height="36.9" rx="6.15" transform="translate(-398.15 189.76) rotate(-45)" style="fill:#c06b85"/><rect id="Rectangle_58" data-name="Rectangle 58" x="15.49" y="565.72" width="12.3" height="36.9" rx="6.15" transform="translate(-406.73 186.4) rotate(-45)" style="fill:#c06b85"/><rect id="Rectangle_59" data-name="Rectangle 59" x="8.7" y="575.77" width="12.3" height="36.9" rx="6.15" transform="translate(-415.83 184.54) rotate(-45)" style="fill:#c06b85"/></g></g></svg>