<svg id="Calque_1" data-name="Calque 1" xmlns="http://www.w3.org/2000/svg" viewBox="0 0 164.56 553.72"><title>Plan de travail 36</title><g id="Groupe_17" data-name="Groupe 17"><g id="Groupe_15" data-name="Groupe 15"><circle id="Ellipse_34" data-name="Ellipse 34" cx="41.82" cy="76.33" r="41.82" style="fill:#e3ab97"/><rect id="Rectangle_35" data-name="Rectangle 35" x="36.79" y="35.99" width="62.57" height="20.28" rx="10.14" style="fill:#e3ab97"/><path id="Rectangle_36" data-name="Rectangle 36" d="M54.48,1h0A9.54,9.54,0,0,1,64,10.54V54a9.53,9.53,0,0,1-9.53,9.53h0A9.54,9.54,0,0,1,44.94,54V10.54A9.54,9.54,0,0,1,54.48,1Z" style="fill:#e3ab97"/><rect id="Rectangle_37" data-name="Rectangle 37" x="36.79" y="56.57" width="62.57" height="20.28" rx="10.14" style="fill:#e3ab97"/><rect id="Rectangle_38" data-name="Rectangle 38" x="35.66" y="77.16" width="62.57" height="20.28" rx="10.14" style="fill:#e3ab97"/><rect id="Rectangle_39" data-name="Rectangle 39" x="30.78" y="96.76" width="62.57" height="20.28" rx="10.14" style="fill:#e3ab97"/></g><g id="Groupe_16" data-name="Groupe 16"><path id="Tracé_8" data-name="Tracé 8" d="M163.25,76.33a41.85,41.85,0,0,1-51.43,40.72H79.44a9.57,9.57,0,0,1-9.53-9.53V106.3a9.57,9.57,0,0,1,6-8.86L112.4,97c.37,0,.28.15.28-.27l-33.24.4a9.23,9.23,0,0,0-3.51.27H74.55A9.55,9.55,0,0,1,65,87.91V86.69a9.55,9.55,0,0,1,9.53-9.53h39v-.3H73.42a9.57,9.57,0,0,1-9.53-9.53V66.11a9.56,9.56,0,0,1,9.53-9.53h38.82v-.3H73.42a9.57,9.57,0,0,1-9.53-9.54V45.52A9.56,9.56,0,0,1,73.42,36H99.25V10.54a9.53,9.53,0,1,1,19.06,0V34.62c1-.07,2.07-.11,3.12-.11A41.82,41.82,0,0,1,163.25,76.33Z" style="fill:#e3ab97;stroke:#fff;stroke-miterlimit:10;stroke-width:2px"/></g></g><g id="Groupe_20" data-name="Groupe 20"><g id="Groupe_18" data-name="Groupe 18"><circle id="Ellipse_35" data-name="Ellipse 35" cx="42.55" cy="509.9" r="42.55" style="fill:#e3ab97"/><path id="Rectangle_40" data-name="Rectangle 40" d="M101.08,479.17h0a10.32,10.32,0,0,1-10.31,10.32h-43a10.32,10.32,0,0,1-10.32-10.32h0a10.32,10.32,0,0,1,10.32-10.31h43A10.32,10.32,0,0,1,101.08,479.17Z" style="fill:#e3ab97"/><path id="Rectangle_41" data-name="Rectangle 41" d="M82.93,436h0a9.7,9.7,0,0,1,0,13.71L51.63,481a9.69,9.69,0,0,1-13.71,0h0a9.69,9.69,0,0,1,0-13.71L69.21,436A9.7,9.7,0,0,1,82.93,436Z" style="fill:#e3ab97"/><path id="Rectangle_42" data-name="Rectangle 42" d="M101.08,500.12h0a10.32,10.32,0,0,1-10.31,10.31h-43a10.32,10.32,0,0,1-10.32-10.31h0A10.32,10.32,0,0,1,47.75,489.8h43A10.32,10.32,0,0,1,101.08,500.12Z" style="fill:#e3ab97"/><path id="Rectangle_43" data-name="Rectangle 43" d="M99.93,521.06h0a10.32,10.32,0,0,1-10.32,10.31h-43a10.32,10.32,0,0,1-10.32-10.31h0A10.32,10.32,0,0,1,46.6,510.74h43A10.32,10.32,0,0,1,99.93,521.06Z" style="fill:#e3ab97"/><path id="Rectangle_44" data-name="Rectangle 44" d="M95,541h0a10.32,10.32,0,0,1-10.32,10.32h-43A10.32,10.32,0,0,1,31.31,541h0a10.31,10.31,0,0,1,10.31-10.31h43A10.31,10.31,0,0,1,95,541Z" style="fill:#e3ab97"/></g><g id="Groupe_19" data-name="Groupe 19"><path id="Tracé_10" data-name="Tracé 10" d="M163.56,510.17a42.58,42.58,0,0,1-52.32,41.42H78.3a9.73,9.73,0,0,1-9.7-9.7v-1.24a9.72,9.72,0,0,1,6.12-9l37.1-.41c.38,0,.29.15.29-.28l-33.82.41a9.36,9.36,0,0,0-3.57.28h-1.4a9.72,9.72,0,0,1-9.7-9.7v-1.23a9.72,9.72,0,0,1,9.7-9.7H113v-.31H72.18a9.72,9.72,0,0,1-9.7-9.7v-1.23a9.72,9.72,0,0,1,9.7-9.7h39.49v-.3H72.18a9.72,9.72,0,0,1-9.7-9.7v-1.23a9.72,9.72,0,0,1,9.7-9.7H82.29l-.2-.1A9.53,9.53,0,0,1,77.5,456.4l1-2a9.53,9.53,0,0,1,12.64-4.59L132,468.84a7.67,7.67,0,0,1,.8.43A42.55,42.55,0,0,1,163.56,510.17Z" style="fill:#e3ab97;stroke:#fff;stroke-miterlimit:10;stroke-width:2px"/></g></g></svg>