<svg id="Calque_1" data-name="Calque 1" xmlns="http://www.w3.org/2000/svg" viewBox="0 0 669.24 375.78"><title>Plan de travail 24</title><g style="isolation:isolate"><text transform="translate(0 336.14)" style="isolation:isolate;font-size:40px;fill:#d26d7e;font-family:Nunito-Bold, Nunito;font-weight:700;letter-spacing:0.00799560546875em">« 5 !! »</text></g><g style="isolation:isolate"><text transform="translate(551 336.14)" style="isolation:isolate;font-size:40px;fill:#d26d7e;font-family:Nunito-Bold, Nunito;font-weight:700;letter-spacing:0.00799560546875em">« 7 !! »</text></g><g id="Groupe_6" data-name="Groupe 6"><g id="Groupe_4" data-name="Groupe 4"><circle id="Ellipse_10" data-name="Ellipse 10" cx="467.63" cy="39.93" r="39.93" style="fill:#d26e81"/><rect id="Rectangle_16" data-name="Rectangle 16" x="411.25" y="19.27" width="60.02" height="19.45" rx="7.36" style="fill:#d26e81"/><rect id="Rectangle_17" data-name="Rectangle 17" x="411" y="0.59" width="60.02" height="19.45" rx="7.36" style="fill:#d26e81"/><rect id="Rectangle_18" data-name="Rectangle 18" x="412.58" y="57.62" width="60.02" height="19.45" rx="7.36" style="fill:#d26e81"/><rect id="Rectangle_19" data-name="Rectangle 19" x="412.32" y="38.93" width="60.02" height="19.45" rx="7.36" style="fill:#d26e81"/></g><g id="Groupe_14" data-name="Groupe 14"><circle id="Ellipse_10-2" data-name="Ellipse 10-2" cx="200.37" cy="39.93" r="39.93" style="fill:#d26e81"/><rect id="Rectangle_16-2" data-name="Rectangle 16-2" x="196.73" y="19.27" width="60.02" height="19.45" rx="7.36" style="fill:#d26e81"/><rect id="Rectangle_17-2" data-name="Rectangle 17-2" x="196.98" y="0.59" width="60.02" height="19.45" rx="7.36" style="fill:#d26e81"/><rect id="Rectangle_18-2" data-name="Rectangle 18-2" x="195.41" y="57.62" width="60.02" height="19.45" rx="7.36" style="fill:#d26e81"/><rect id="Rectangle_19-2" data-name="Rectangle 19-2" x="195.66" y="38.93" width="60.02" height="19.45" rx="7.36" style="fill:#d26e81"/></g></g><path id="Tracé_6" data-name="Tracé 6" d="M244,361.67a9.55,9.55,0,0,0,6.83-17.84l-23.59-9a39.24,39.24,0,0,0,.15-23.45l23.44-9A9.55,9.55,0,0,0,244,284.55L217.3,294.78a39.2,39.2,0,1,0-.39,56.5Z" style="fill:#d26e81"/><path id="Tracé_7" data-name="Tracé 7" d="M427.21,275.15a9.57,9.57,0,0,0,3,13.16L450.56,301a38.81,38.81,0,0,0-5.06,12.63H420.55a9.55,9.55,0,0,0,0,19.1h25.73A39.24,39.24,0,0,0,452,344.5l-21.78,13.64a9.55,9.55,0,0,0,10.14,16.18l27.17-17a39.2,39.2,0,1,0-2.73-69.88l-24.44-15.31A9.57,9.57,0,0,0,427.21,275.15Z" style="fill:#d26e81"/></svg>