<svg id="Calque_1" data-name="Calque 1" xmlns="http://www.w3.org/2000/svg" viewBox="0 0 557.27 549.1"><title>Plan de travail 32</title><g id="Groupe_6" data-name="Groupe 6"><g id="Groupe_11" data-name="Groupe 11"><circle id="Ellipse_9" data-name="Ellipse 9" cx="31.74" cy="338.66" r="30.2" style="fill:#345c7d"/><path id="Rectangle_14" data-name="Rectangle 14" d="M6.28,286.22h0a7.34,7.34,0,0,1,8.35,6.2l4.48,30.34a7.35,7.35,0,0,1-6.2,8.35h0a7.35,7.35,0,0,1-8.35-6.2L.08,294.57A7.35,7.35,0,0,1,6.28,286.22Z" style="fill:#345c7d"/><path id="Rectangle_15" data-name="Rectangle 15" d="M30.17,329.45h0a7.35,7.35,0,0,1-7.08-7.61l1.1-30.65a7.37,7.37,0,0,1,7.61-7.09h0a7.36,7.36,0,0,1,7.09,7.62l-1.11,30.65A7.35,7.35,0,0,1,30.17,329.45Z" style="fill:#345c7d"/></g><g id="Groupe_4" data-name="Groupe 4"><circle id="Ellipse_10" data-name="Ellipse 10" cx="289.9" cy="518.9" r="30.2" style="fill:#345c7d"/><path id="Rectangle_16" data-name="Rectangle 16" d="M247.25,510.63h0a7.37,7.37,0,0,1,7.36-7.36h30.68a7.37,7.37,0,0,1,7.36,7.36h0a7.37,7.37,0,0,1-7.36,7.36H254.61A7.37,7.37,0,0,1,247.25,510.63Z" style="fill:#345c7d"/><path id="Rectangle_17" data-name="Rectangle 17" d="M247.06,496.5h0a7.36,7.36,0,0,1,7.36-7.36H285.1a7.35,7.35,0,0,1,7.35,7.36h0a7.35,7.35,0,0,1-7.35,7.35H254.42A7.36,7.36,0,0,1,247.06,496.5Z" style="fill:#345c7d"/><path id="Rectangle_18" data-name="Rectangle 18" d="M248.25,539.63h0a7.37,7.37,0,0,1,7.36-7.36h30.68a7.37,7.37,0,0,1,7.36,7.36h0a7.37,7.37,0,0,1-7.36,7.36H255.61A7.37,7.37,0,0,1,248.25,539.63Z" style="fill:#345c7d"/><path id="Rectangle_19" data-name="Rectangle 19" d="M248.06,525.5h0a7.36,7.36,0,0,1,7.36-7.36H286.1a7.35,7.35,0,0,1,7.35,7.36h0a7.35,7.35,0,0,1-7.35,7.35H255.42A7.36,7.36,0,0,1,248.06,525.5Z" style="fill:#345c7d"/></g><g id="Groupe_13" data-name="Groupe 13"><circle id="Ellipse_11" data-name="Ellipse 11" cx="519.53" cy="343.48" r="30.2" style="fill:#345c7d"/><path id="Rectangle_20" data-name="Rectangle 20" d="M489.16,295.3h0a7.36,7.36,0,0,1,9.27,4.73l9.45,29.17a7.35,7.35,0,0,1-4.73,9.26h0a7.35,7.35,0,0,1-9.27-4.73l-9.45-29.17A7.36,7.36,0,0,1,489.16,295.3Z" style="fill:#345c7d"/><path id="Rectangle_21" data-name="Rectangle 21" d="M500.51,285.86h0a7.35,7.35,0,0,1,9.37,4.52l10.11,29a7.35,7.35,0,0,1-4.52,9.37h0a7.36,7.36,0,0,1-9.37-4.52l-10.11-29A7.36,7.36,0,0,1,500.51,285.86Z" style="fill:#345c7d"/><path id="Rectangle_22" data-name="Rectangle 22" d="M539.57,340.45h0a7.36,7.36,0,0,1-5.08-9.08l8.35-29.51a7.34,7.34,0,0,1,9.07-5.07h0a7.34,7.34,0,0,1,5.08,9.07l-8.34,29.52A7.36,7.36,0,0,1,539.57,340.45Z" style="fill:#345c7d"/><path id="Rectangle_23" data-name="Rectangle 23" d="M526.54,331.22h0a7.34,7.34,0,0,1-4.84-9.2l9.09-29.3a7.36,7.36,0,0,1,9.21-4.84h0a7.35,7.35,0,0,1,4.85,9.2l-9.1,29.3A7.36,7.36,0,0,1,526.54,331.22Z" style="fill:#345c7d"/></g><g id="Groupe_5" data-name="Groupe 5"><path id="Rectangle_24" data-name="Rectangle 24" d="M99.2,36.26h0a7.36,7.36,0,0,1,9.69,3.79l12.3,28.1a7.36,7.36,0,0,1-3.78,9.69h0a7.36,7.36,0,0,1-9.69-3.79L95.41,46A7.37,7.37,0,0,1,99.2,36.26Z" style="fill:#345c7d"/><ellipse id="Ellipse_12" data-name="Ellipse 12" cx="131.63" cy="62.01" rx="26.95" ry="25.06" style="fill:#345c7d"/><path id="Rectangle_25" data-name="Rectangle 25" d="M113.37,6.33h0a7.35,7.35,0,0,1,8.12,6.51l3.32,30.5a7.35,7.35,0,0,1-6.51,8.11h0a7.36,7.36,0,0,1-8.11-6.52l-3.33-30.49A7.36,7.36,0,0,1,113.37,6.33Z" style="fill:#345c7d"/><path id="Rectangle_26" data-name="Rectangle 26" d="M130,0h0a7.36,7.36,0,0,1,7.36,7.36V38A7.36,7.36,0,0,1,130,45.39h0A7.36,7.36,0,0,1,122.61,38V7.36A7.36,7.36,0,0,1,130,0Z" style="fill:#345c7d"/><path id="Rectangle_27" data-name="Rectangle 27" d="M149.3,59.69h0a7.37,7.37,0,0,1-5-9.12l8.55-29.46a7.35,7.35,0,0,1,9.11-5h0a7.36,7.36,0,0,1,5,9.11l-8.55,29.47A7.36,7.36,0,0,1,149.3,59.69Z" style="fill:#345c7d"/><path id="Rectangle_28" data-name="Rectangle 28" d="M139.41,48.08h0a7.37,7.37,0,0,1-6-8.48l5.09-30.25a7.36,7.36,0,0,1,8.47-6h0a7.37,7.37,0,0,1,6,8.48L147.89,42A7.37,7.37,0,0,1,139.41,48.08Z" style="fill:#345c7d"/><path id="Tracé_1" data-name="Tracé 1" d="M155.47,34.76s7.08,4.2,6.35,8S158,68,157.08,69.91s-6.79,8.92-14.61,8.5S146.67,39.6,148,37.1,155.47,34.76,155.47,34.76Z" style="fill:#345c7d"/></g><g id="Groupe_12" data-name="Groupe 12"><ellipse id="Ellipse_13" data-name="Ellipse 13" cx="446.8" cy="43.35" rx="30.2" ry="21.71" style="fill:#345c7d"/><rect id="Rectangle_29" data-name="Rectangle 29" x="388.08" y="21.81" width="58.12" height="13.66" rx="6.83" style="fill:#345c7d"/><path id="Rectangle_30" data-name="Rectangle 30" d="M403.24,51.68h0a7.36,7.36,0,0,1,7-7.72l30.64-1.54a7.36,7.36,0,0,1,7.72,7h0a7.36,7.36,0,0,1-7,7.72L411,58.66A7.36,7.36,0,0,1,403.24,51.68Z" style="fill:#345c7d"/></g></g><g id="Groupe_50" data-name="Groupe 50"><g id="Groupe_31" data-name="Groupe 31"><path id="Tracé_12" data-name="Tracé 12" d="M61,263.61a2.1,2.1,0,0,1-.61-.09A2,2,0,0,1,59.1,261h0l44-138.25A2,2,0,0,1,106.9,124l-44,138.26A2,2,0,0,1,61,263.61Z" style="fill:#345c7d"/><g id="Groupe_30" data-name="Groupe 30"><path id="Tracé_13" data-name="Tracé 13" d="M112,145.67a1.41,1.41,0,0,1-1.71-1h0L104.8,124,88.36,137.69a1.4,1.4,0,0,1-1.8-2.15h0l18.13-15.13a1.4,1.4,0,0,1,2,.17,1.27,1.27,0,0,1,.28.54L113,144a1.39,1.39,0,0,1-1,1.71h0Z" style="fill:#345c7d"/></g></g><g id="Groupe_33" data-name="Groupe 33"><path id="Tracé_14" data-name="Tracé 14" d="M87.68,301.71a2,2,0,0,1-1.2-3.6L370.17,86.3a2,2,0,0,1,2.46,3.16l-.06.05L88.87,301.31A2,2,0,0,1,87.68,301.71Z" style="fill:#345c7d"/><g id="Groupe_32" data-name="Groupe 32"><path id="Tracé_15" data-name="Tracé 15" d="M364.07,110.12a1.4,1.4,0,0,1-.81-1.8h0l7.6-20L349.5,89.87a1.4,1.4,0,1,1-.21-2.79l23.55-1.75a1.4,1.4,0,0,1,1.5,1.29,1.35,1.35,0,0,1-.08.6l-8.38,22.09a1.4,1.4,0,0,1-1.8.81Z" style="fill:#345c7d"/></g></g><g id="Groupe_35" data-name="Groupe 35"><path id="Tracé_16" data-name="Tracé 16" d="M502.54,248.53a2,2,0,0,1-1.9-1.36L453.46,106.85a2,2,0,0,1,3.79-1.28L504.44,245.9a2,2,0,0,1-1.9,2.63Z" style="fill:#345c7d"/><g id="Groupe_34" data-name="Groupe 34"><path id="Tracé_17" data-name="Tracé 17" d="M483.7,232.68a1.4,1.4,0,0,1,2-.21h0l16.66,13.46,5.15-20.79a1.4,1.4,0,1,1,2.72.67l-5.68,22.92a1.4,1.4,0,0,1-1.69,1,1.57,1.57,0,0,1-.55-.27l-18.37-14.84a1.4,1.4,0,0,1-.21-2Z" style="fill:#345c7d"/></g></g><g id="Groupe_37" data-name="Groupe 37"><path id="Tracé_18" data-name="Tracé 18" d="M440.11,351.52H95.49a2,2,0,0,1,0-4H440.11a2,2,0,0,1,0,4Z" style="fill:#345c7d"/><g id="Groupe_36" data-name="Groupe 36"><path id="Tracé_19" data-name="Tracé 19" d="M114.62,336.08a1.39,1.39,0,0,1-.43,1.93h0L96.13,349.52,114.19,361a1.4,1.4,0,1,1-1.41,2.41l-.09-.05L92.77,350.7a1.4,1.4,0,0,1-.43-1.93,1.47,1.47,0,0,1,.43-.43l19.92-12.69a1.4,1.4,0,0,1,1.94.43h0Z" style="fill:#345c7d"/></g></g><g id="Groupe_39" data-name="Groupe 39"><path id="Tracé_20" data-name="Tracé 20" d="M353.87,478.27a2,2,0,0,1-1.22-3.58l107.83-83a2,2,0,0,1,2.44,3.17h0l-107.83,83A2,2,0,0,1,353.87,478.27Z" style="fill:#345c7d"/><g id="Groupe_38" data-name="Groupe 38"><path id="Tracé_21" data-name="Tracé 21" d="M360.84,454a1.39,1.39,0,0,1,.83,1.79h0l-7.29,20.13,21.33-1.9a1.4,1.4,0,0,1,.25,2.79h0l-23.52,2.1a1.4,1.4,0,0,1-1.52-1.27,1.35,1.35,0,0,1,.08-.6l8-22.21a1.4,1.4,0,0,1,1.8-.84Z" style="fill:#345c7d"/></g></g><g id="Groupe_41" data-name="Groupe 41"><path id="Tracé_22" data-name="Tracé 22" d="M205.15,490.49a2,2,0,0,1-1.09-.33L74.79,405.64A2,2,0,1,1,77,402.3l129.27,84.52a2,2,0,0,1-1.1,3.67Z" style="fill:#345c7d"/><g id="Groupe_40" data-name="Groupe 40"><path id="Tracé_23" data-name="Tracé 23" d="M99.26,403.19a1.41,1.41,0,0,1-1.42,1.39h0l-21.42-.25,8.82,19.52A1.4,1.4,0,1,1,82.69,425L73,403.47a1.41,1.41,0,0,1,.69-1.86,1.53,1.53,0,0,1,.6-.12l23.61.28a1.4,1.4,0,0,1,1.39,1.42Z" style="fill:#345c7d"/></g></g><g id="Groupe_43" data-name="Groupe 43"><path id="Tracé_24" data-name="Tracé 24" d="M346.13,52.09H195.91a2,2,0,0,1,0-4H346.13a2,2,0,0,1,0,4Z" style="fill:#345c7d"/><g id="Groupe_42" data-name="Groupe 42"><path id="Tracé_25" data-name="Tracé 25" d="M215.05,36.65a1.4,1.4,0,0,1-.43,1.93h0L196.55,50.09l18.07,11.5A1.4,1.4,0,0,1,213.18,64l-.06,0L193.19,51.27a1.41,1.41,0,0,1-.43-1.94,1.33,1.33,0,0,1,.43-.42l19.92-12.69a1.41,1.41,0,0,1,1.94.43Z" style="fill:#345c7d"/></g></g><g id="Groupe_45" data-name="Groupe 45"><path id="Tracé_26" data-name="Tracé 26" d="M246.11,441.54a2,2,0,0,1-1.92-1.44L148.62,115.67a2,2,0,1,1,3.84-1.13L248,439a2,2,0,0,1-1.35,2.48h0A2.24,2.24,0,0,1,246.11,441.54Z" style="fill:#345c7d"/><g id="Groupe_44" data-name="Groupe 44"><path id="Tracé_27" data-name="Tracé 27" d="M227.81,425a1.41,1.41,0,0,1,2-.13h0l16.14,14.08,5.93-20.59a1.41,1.41,0,0,1,2.7.78L248,441.81a1.4,1.4,0,0,1-1.73,1,1.44,1.44,0,0,1-.53-.29L228,427a1.42,1.42,0,0,1-.14-2Z" style="fill:#345c7d"/></g></g><g id="Groupe_47" data-name="Groupe 47"><path id="Tracé_28" data-name="Tracé 28" d="M437.43,287.78a2,2,0,0,1-1.21-.41L181.08,92.56a2,2,0,1,1,2.43-3.18L438.65,284.19a2,2,0,0,1-1.22,3.59Z" style="fill:#345c7d"/><g id="Groupe_46" data-name="Groupe 46"><path id="Tracé_29" data-name="Tracé 29" d="M414.07,284.85a1.4,1.4,0,0,1,1.51-1.28h0l21.34,1.82-7.37-20.11a1.4,1.4,0,0,1,2.63-1l8.13,22.17a1.4,1.4,0,0,1-.83,1.8,1.37,1.37,0,0,1-.6.08l-23.54-2a1.45,1.45,0,0,1-.73-.29A1.39,1.39,0,0,1,414.07,284.85Z" style="fill:#345c7d"/></g></g><g id="Groupe_49" data-name="Groupe 49"><path id="Tracé_30" data-name="Tracé 30" d="M311.84,449.85a2,2,0,0,1-2-2,2.33,2.33,0,0,1,.08-.59L413.07,112.65a2,2,0,1,1,3.85,1.11.14.14,0,0,0,0,.07L313.75,448.44A2,2,0,0,1,311.84,449.85Z" style="fill:#345c7d"/><g id="Groupe_48" data-name="Groupe 48"><path id="Tracé_31" data-name="Tracé 31" d="M422.19,135.48a1.4,1.4,0,0,1-1.72-1h0l-5.67-20.65-16.32,13.87a1.4,1.4,0,0,1-1.81-2.13h0l18-15.3a1.4,1.4,0,0,1,2,.16,1.57,1.57,0,0,1,.29.54l6.25,22.77a1.4,1.4,0,0,1-1,1.73h0Z" style="fill:#345c7d"/></g></g></g></svg>